<mxfile host="65bd71144e" modified="2021-02-09T12:40:03.150Z" agent="5.0 (Macintosh; Intel Mac OS X 11_1_0) AppleWebKit/537.36 (KHTML, like Gecko) Code/1.53.0 Chrome/87.0.4280.141 Electron/11.2.1 Safari/537.36" etag="vZqI3WDdaSle5StL4NW7" version="13.10.0" type="embed">
    <diagram id="jGCV98gVly2-MNFm8NOj" name="Page-1">
        <mxGraphModel dx="1647" dy="638" grid="1" gridSize="10" guides="1" tooltips="1" connect="1" arrows="1" fold="1" page="1" pageScale="1" pageWidth="1800" pageHeight="800" math="0" shadow="0">
            <root>
                <mxCell id="0"/>
                <mxCell id="1" parent="0"/>
                <mxCell id="Zt5BA39hv14aOKBqLXmp-29" value="" style="endArrow=classic;html=1;entryX=0;entryY=0.5;entryDx=0;entryDy=0;entryPerimeter=0;exitX=1;exitY=0.5;exitDx=0;exitDy=0;" parent="1" source="Zt5BA39hv14aOKBqLXmp-16" edge="1">
                    <mxGeometry width="50" height="50" relative="1" as="geometry">
                        <mxPoint x="870" y="360" as="sourcePoint"/>
                        <mxPoint x="1220" y="179.75" as="targetPoint"/>
                    </mxGeometry>
                </mxCell>
                <mxCell id="Zt5BA39hv14aOKBqLXmp-30" value="" style="group;fontSize=12;" parent="1" vertex="1" connectable="0">
                    <mxGeometry x="450" y="40" width="710" height="410" as="geometry"/>
                </mxCell>
                <mxCell id="Zt5BA39hv14aOKBqLXmp-1" value="&lt;font style=&quot;font-size: 14px&quot;&gt;FHIR-Gateway&lt;/font&gt;" style="whiteSpace=wrap;html=1;labelPosition=center;verticalLabelPosition=top;align=center;verticalAlign=bottom;" parent="Zt5BA39hv14aOKBqLXmp-30" vertex="1">
                    <mxGeometry x="20" width="620" height="410" as="geometry"/>
                </mxCell>
                <mxCell id="Zt5BA39hv14aOKBqLXmp-2" value="REST-API" style="triangle;whiteSpace=wrap;html=1;align=left;" parent="Zt5BA39hv14aOKBqLXmp-30" vertex="1">
                    <mxGeometry y="150.5" width="90" height="79.5" as="geometry"/>
                </mxCell>
                <mxCell id="Zt5BA39hv14aOKBqLXmp-6" value="LOINC-Harmonizer" style="shape=process;whiteSpace=wrap;html=1;backgroundOutline=1;" parent="Zt5BA39hv14aOKBqLXmp-30" vertex="1">
                    <mxGeometry x="435" y="20" width="130" height="60" as="geometry"/>
                </mxCell>
                <mxCell id="Zt5BA39hv14aOKBqLXmp-7" value="FHIR-Pseudonymizer" style="shape=process;whiteSpace=wrap;html=1;backgroundOutline=1;" parent="Zt5BA39hv14aOKBqLXmp-30" vertex="1">
                    <mxGeometry x="265" y="119.5" width="140" height="60" as="geometry"/>
                </mxCell>
                <mxCell id="Zt5BA39hv14aOKBqLXmp-8" value="Three-Way-Merge" style="shape=process;whiteSpace=wrap;html=1;backgroundOutline=1;" parent="Zt5BA39hv14aOKBqLXmp-30" vertex="1">
                    <mxGeometry x="95" y="20" width="140" height="60" as="geometry"/>
                </mxCell>
                <mxCell id="Zt5BA39hv14aOKBqLXmp-12" value="" style="endArrow=classic;html=1;" parent="Zt5BA39hv14aOKBqLXmp-30" source="Zt5BA39hv14aOKBqLXmp-7" edge="1">
                    <mxGeometry x="-5" width="50" height="50" as="geometry">
                        <mxPoint x="335" y="180" as="sourcePoint"/>
                        <mxPoint x="335" y="240" as="targetPoint"/>
                    </mxGeometry>
                </mxCell>
                <mxCell id="Zt5BA39hv14aOKBqLXmp-16" value="JDBC" style="triangle;whiteSpace=wrap;html=1;align=left;" parent="Zt5BA39hv14aOKBqLXmp-30" vertex="1">
                    <mxGeometry x="620" y="100" width="90" height="79.5" as="geometry"/>
                </mxCell>
                <mxCell id="Zt5BA39hv14aOKBqLXmp-17" value="REST-Client" style="triangle;whiteSpace=wrap;html=1;align=left;dashed=1;" parent="Zt5BA39hv14aOKBqLXmp-30" vertex="1">
                    <mxGeometry x="620" y="199.5" width="90" height="80" as="geometry"/>
                </mxCell>
                <mxCell id="Zt5BA39hv14aOKBqLXmp-19" value="Kafka-Producer" style="triangle;whiteSpace=wrap;html=1;align=left;dashed=1;" parent="Zt5BA39hv14aOKBqLXmp-30" vertex="1">
                    <mxGeometry x="620" y="299.5" width="90" height="80" as="geometry"/>
                </mxCell>
                <mxCell id="Zt5BA39hv14aOKBqLXmp-20" value="Kafka-Consumer" style="triangle;whiteSpace=wrap;html=1;align=left;dashed=1;" parent="Zt5BA39hv14aOKBqLXmp-30" vertex="1">
                    <mxGeometry y="250" width="90" height="80" as="geometry"/>
                </mxCell>
                <mxCell id="Zt5BA39hv14aOKBqLXmp-22" value="" style="endArrow=classic;html=1;exitX=1;exitY=0.5;exitDx=0;exitDy=0;entryX=0;entryY=0.5;entryDx=0;entryDy=0;" parent="Zt5BA39hv14aOKBqLXmp-30" source="Zt5BA39hv14aOKBqLXmp-2" target="Zt5BA39hv14aOKBqLXmp-17" edge="1">
                    <mxGeometry relative="1" as="geometry">
                        <mxPoint x="240" y="240" as="sourcePoint"/>
                        <mxPoint x="580" y="240" as="targetPoint"/>
                        <Array as="points">
                            <mxPoint x="110" y="190"/>
                            <mxPoint x="110" y="240"/>
                        </Array>
                    </mxGeometry>
                </mxCell>
                <mxCell id="Zt5BA39hv14aOKBqLXmp-23" value="" style="shape=message;html=1;outlineConnect=0;" parent="Zt5BA39hv14aOKBqLXmp-22" vertex="1">
                    <mxGeometry width="20" height="14" relative="1" as="geometry">
                        <mxPoint x="-90" y="-6.779999999999999" as="offset"/>
                    </mxGeometry>
                </mxCell>
                <mxCell id="Zt5BA39hv14aOKBqLXmp-24" value="" style="endArrow=none;html=1;exitX=1;exitY=0.5;exitDx=0;exitDy=0;" parent="Zt5BA39hv14aOKBqLXmp-30" source="Zt5BA39hv14aOKBqLXmp-20" edge="1">
                    <mxGeometry width="50" height="50" relative="1" as="geometry">
                        <mxPoint x="420" y="330" as="sourcePoint"/>
                        <mxPoint x="170" y="240" as="targetPoint"/>
                        <Array as="points">
                            <mxPoint x="110" y="290"/>
                            <mxPoint x="110" y="240"/>
                        </Array>
                    </mxGeometry>
                </mxCell>
                <mxCell id="Zt5BA39hv14aOKBqLXmp-25" value="" style="endArrow=classic;html=1;entryX=0;entryY=0.5;entryDx=0;entryDy=0;" parent="Zt5BA39hv14aOKBqLXmp-30" target="Zt5BA39hv14aOKBqLXmp-16" edge="1">
                    <mxGeometry width="50" height="50" relative="1" as="geometry">
                        <mxPoint x="590" y="240" as="sourcePoint"/>
                        <mxPoint x="470" y="280" as="targetPoint"/>
                        <Array as="points">
                            <mxPoint x="590" y="140"/>
                        </Array>
                    </mxGeometry>
                </mxCell>
                <mxCell id="Zt5BA39hv14aOKBqLXmp-26" value="" style="endArrow=classic;html=1;entryX=0;entryY=0.5;entryDx=0;entryDy=0;" parent="Zt5BA39hv14aOKBqLXmp-30" target="Zt5BA39hv14aOKBqLXmp-19" edge="1">
                    <mxGeometry width="50" height="50" relative="1" as="geometry">
                        <mxPoint x="590" y="240" as="sourcePoint"/>
                        <mxPoint x="630" y="149.75" as="targetPoint"/>
                        <Array as="points">
                            <mxPoint x="590" y="340"/>
                        </Array>
                    </mxGeometry>
                </mxCell>
                <mxCell id="Zt5BA39hv14aOKBqLXmp-27" value="" style="endArrow=classic;html=1;exitX=0.5;exitY=1;exitDx=0;exitDy=0;" parent="Zt5BA39hv14aOKBqLXmp-30" edge="1">
                    <mxGeometry x="155" width="50" height="50" as="geometry">
                        <mxPoint x="494.5" y="80" as="sourcePoint"/>
                        <mxPoint x="495" y="240" as="targetPoint"/>
                    </mxGeometry>
                </mxCell>
                <mxCell id="Zt5BA39hv14aOKBqLXmp-28" value="" style="endArrow=classic;html=1;exitX=0.5;exitY=1;exitDx=0;exitDy=0;" parent="Zt5BA39hv14aOKBqLXmp-30" edge="1">
                    <mxGeometry x="-175" width="50" height="50" as="geometry">
                        <mxPoint x="164.5" y="80" as="sourcePoint"/>
                        <mxPoint x="165" y="240" as="targetPoint"/>
                    </mxGeometry>
                </mxCell>
                <mxCell id="Zt5BA39hv14aOKBqLXmp-37" value="" style="shape=mxgraph.bpmn.service_task;html=1;outlineConnect=0;align=center;" parent="Zt5BA39hv14aOKBqLXmp-30" vertex="1">
                    <mxGeometry x="221" y="20" width="14" height="14" as="geometry"/>
                </mxCell>
                <mxCell id="Zt5BA39hv14aOKBqLXmp-38" value="" style="shape=mxgraph.bpmn.service_task;html=1;outlineConnect=0;align=center;" parent="Zt5BA39hv14aOKBqLXmp-30" vertex="1">
                    <mxGeometry x="391" y="119.5" width="14" height="14" as="geometry"/>
                </mxCell>
                <mxCell id="Zt5BA39hv14aOKBqLXmp-39" value="" style="shape=mxgraph.bpmn.service_task;html=1;outlineConnect=0;align=center;" parent="Zt5BA39hv14aOKBqLXmp-30" vertex="1">
                    <mxGeometry x="551" y="20" width="14" height="14" as="geometry"/>
                </mxCell>
                <mxCell id="i84gKOjJ2JVwInqTfZ93-7" value="General three-way merge: Every resource that is sent to FHIR-GW first looks up a potential existing predecessor in the FHIR-GW and merges in case.&lt;br&gt;This could also be performed inside FHIR-GW." style="shape=callout;whiteSpace=wrap;html=1;perimeter=calloutPerimeter;align=center;rotation=0;base=34;size=30;position=0.97;position2=1;" parent="Zt5BA39hv14aOKBqLXmp-30" vertex="1">
                    <mxGeometry x="-210" y="-30" width="300" height="100" as="geometry"/>
                </mxCell>
                <mxCell id="3" style="edgeStyle=orthogonalEdgeStyle;rounded=0;orthogonalLoop=1;jettySize=auto;html=1;endArrow=none;endFill=0;" parent="Zt5BA39hv14aOKBqLXmp-30" source="2" target="Zt5BA39hv14aOKBqLXmp-7" edge="1">
                    <mxGeometry relative="1" as="geometry"/>
                </mxCell>
                <mxCell id="2" value="gPAS" style="shape=process;whiteSpace=wrap;html=1;backgroundOutline=1;" parent="Zt5BA39hv14aOKBqLXmp-30" vertex="1">
                    <mxGeometry x="265" y="20" width="140" height="60" as="geometry"/>
                </mxCell>
                <mxCell id="Zt5BA39hv14aOKBqLXmp-32" value="FHIR-DB (PostgreSQL)" style="shape=cylinder3;whiteSpace=wrap;html=1;boundedLbl=1;backgroundOutline=1;size=15;align=center;" parent="1" vertex="1">
                    <mxGeometry x="1220" y="140" width="90" height="80" as="geometry"/>
                </mxCell>
                <mxCell id="Zt5BA39hv14aOKBqLXmp-34" value="" style="endArrow=classic;html=1;entryX=0;entryY=0.5;entryDx=0;entryDy=0;entryPerimeter=0;exitX=1;exitY=0.5;exitDx=0;exitDy=0;dashed=1;" parent="1" edge="1">
                    <mxGeometry width="50" height="50" relative="1" as="geometry">
                        <mxPoint x="1160" y="279.5" as="sourcePoint"/>
                        <mxPoint x="1220" y="279.5" as="targetPoint"/>
                    </mxGeometry>
                </mxCell>
                <mxCell id="Zt5BA39hv14aOKBqLXmp-35" value="Kafka-&lt;br&gt;Topic" style="shape=internalStorage;whiteSpace=wrap;html=1;backgroundOutline=1;align=center;dashed=1;" parent="1" vertex="1">
                    <mxGeometry x="1220" y="340" width="90" height="80" as="geometry"/>
                </mxCell>
                <mxCell id="Zt5BA39hv14aOKBqLXmp-36" value="" style="endArrow=classic;html=1;entryX=0;entryY=0.5;entryDx=0;entryDy=0;entryPerimeter=0;exitX=1;exitY=0.5;exitDx=0;exitDy=0;dashed=1;" parent="1" edge="1">
                    <mxGeometry width="50" height="50" relative="1" as="geometry">
                        <mxPoint x="1160" y="379.5" as="sourcePoint"/>
                        <mxPoint x="1220" y="379.5" as="targetPoint"/>
                    </mxGeometry>
                </mxCell>
                <mxCell id="Zt5BA39hv14aOKBqLXmp-44" value="Potential&lt;br&gt;FHIR-Server" style="shape=cube;whiteSpace=wrap;html=1;boundedLbl=1;backgroundOutline=1;darkOpacity=0.05;darkOpacity2=0.1;align=center;size=10;dashed=1;" parent="1" vertex="1">
                    <mxGeometry x="1220" y="240" width="90" height="80" as="geometry"/>
                </mxCell>
                <mxCell id="Zt5BA39hv14aOKBqLXmp-60" style="edgeStyle=orthogonalEdgeStyle;orthogonalLoop=1;jettySize=auto;html=1;" parent="1" source="Zt5BA39hv14aOKBqLXmp-46" target="Zt5BA39hv14aOKBqLXmp-62" edge="1">
                    <mxGeometry relative="1" as="geometry"/>
                </mxCell>
                <mxCell id="Zt5BA39hv14aOKBqLXmp-46" value="EDC" style="shape=note;whiteSpace=wrap;html=1;backgroundOutline=1;darkOpacity=0.05;fontSize=12;align=center;" parent="1" vertex="1">
                    <mxGeometry x="70" y="440" width="80" height="100" as="geometry"/>
                </mxCell>
                <mxCell id="Zt5BA39hv14aOKBqLXmp-47" value="" style="shape=umlActor;verticalLabelPosition=bottom;verticalAlign=middle;html=1;outlineConnect=0;fontSize=12;align=center;" parent="1" vertex="1">
                    <mxGeometry x="15" y="460" width="30" height="60" as="geometry"/>
                </mxCell>
                <mxCell id="Zt5BA39hv14aOKBqLXmp-49" value="" style="endArrow=classic;html=1;entryX=0;entryY=0.5;entryDx=0;entryDy=0;entryPerimeter=0;" parent="1" source="Zt5BA39hv14aOKBqLXmp-47" target="Zt5BA39hv14aOKBqLXmp-46" edge="1">
                    <mxGeometry width="50" height="50" relative="1" as="geometry">
                        <mxPoint x="405" y="260" as="sourcePoint"/>
                        <mxPoint x="455" y="210" as="targetPoint"/>
                    </mxGeometry>
                </mxCell>
                <mxCell id="Zt5BA39hv14aOKBqLXmp-52" value="" style="endArrow=classic;html=1;entryX=0;entryY=0.5;entryDx=0;entryDy=0;" parent="1" source="Zt5BA39hv14aOKBqLXmp-51" target="Zt5BA39hv14aOKBqLXmp-2" edge="1">
                    <mxGeometry width="50" height="50" relative="1" as="geometry">
                        <mxPoint x="590" y="260" as="sourcePoint"/>
                        <mxPoint x="640" y="210" as="targetPoint"/>
                        <Array as="points">
                            <mxPoint x="430" y="280"/>
                            <mxPoint x="430" y="230"/>
                        </Array>
                    </mxGeometry>
                </mxCell>
                <mxCell id="Zt5BA39hv14aOKBqLXmp-53" value="" style="endArrow=classic;html=1;entryX=0;entryY=0.5;entryDx=0;entryDy=0;dashed=1;" parent="1" source="Zt5BA39hv14aOKBqLXmp-51" target="Zt5BA39hv14aOKBqLXmp-20" edge="1">
                    <mxGeometry width="50" height="50" relative="1" as="geometry">
                        <mxPoint x="300" y="280" as="sourcePoint"/>
                        <mxPoint x="640" y="210" as="targetPoint"/>
                        <Array as="points">
                            <mxPoint x="430" y="280"/>
                            <mxPoint x="430" y="330"/>
                        </Array>
                    </mxGeometry>
                </mxCell>
                <mxCell id="Zt5BA39hv14aOKBqLXmp-51" value="*-to-fhir" style="shape=mxgraph.bpmn.service_task;html=1;outlineConnect=0;labelPosition=center;verticalLabelPosition=top;align=center;verticalAlign=bottom;" parent="1" vertex="1">
                    <mxGeometry x="220" y="229.75" width="100" height="100.5" as="geometry"/>
                </mxCell>
                <mxCell id="Zt5BA39hv14aOKBqLXmp-58" value="" style="group;" parent="1" vertex="1" connectable="0">
                    <mxGeometry x="40" y="209.75" width="120" height="120.5" as="geometry"/>
                </mxCell>
                <mxCell id="Zt5BA39hv14aOKBqLXmp-55" value="Clinical Source Systems" style="shape=cylinder3;whiteSpace=wrap;html=1;boundedLbl=1;backgroundOutline=1;size=15;" parent="Zt5BA39hv14aOKBqLXmp-58" vertex="1">
                    <mxGeometry width="100" height="100.5" as="geometry"/>
                </mxCell>
                <mxCell id="Zt5BA39hv14aOKBqLXmp-56" value="Clinical Source Systems" style="shape=cylinder3;whiteSpace=wrap;html=1;boundedLbl=1;backgroundOutline=1;size=15;" parent="Zt5BA39hv14aOKBqLXmp-58" vertex="1">
                    <mxGeometry x="10" y="10" width="100" height="100.5" as="geometry"/>
                </mxCell>
                <mxCell id="Zt5BA39hv14aOKBqLXmp-57" value="Clinical Source Systems" style="shape=cylinder3;whiteSpace=wrap;html=1;boundedLbl=1;backgroundOutline=1;size=15;" parent="Zt5BA39hv14aOKBqLXmp-58" vertex="1">
                    <mxGeometry x="20" y="20" width="100" height="100.5" as="geometry"/>
                </mxCell>
                <mxCell id="Zt5BA39hv14aOKBqLXmp-59" style="edgeStyle=orthogonalEdgeStyle;orthogonalLoop=1;jettySize=auto;html=1;exitX=1;exitY=0.5;exitDx=0;exitDy=0;exitPerimeter=0;" parent="1" source="Zt5BA39hv14aOKBqLXmp-57" target="Zt5BA39hv14aOKBqLXmp-51" edge="1">
                    <mxGeometry relative="1" as="geometry"/>
                </mxCell>
                <mxCell id="6" value="A" style="edgeLabel;html=1;align=center;verticalAlign=middle;resizable=0;points=[];" parent="Zt5BA39hv14aOKBqLXmp-59" vertex="1" connectable="0">
                    <mxGeometry x="-0.2346" y="-2" relative="1" as="geometry">
                        <mxPoint as="offset"/>
                    </mxGeometry>
                </mxCell>
                <mxCell id="Zt5BA39hv14aOKBqLXmp-62" value="odm-to-fhir" style="shape=mxgraph.bpmn.service_task;html=1;outlineConnect=0;labelPosition=center;verticalLabelPosition=top;align=center;verticalAlign=bottom;" parent="1" vertex="1">
                    <mxGeometry x="220" y="442.5" width="100" height="95" as="geometry"/>
                </mxCell>
                <mxCell id="Zt5BA39hv14aOKBqLXmp-66" style="edgeStyle=orthogonalEdgeStyle;orthogonalLoop=1;jettySize=auto;html=1;endArrow=none;endFill=0;" parent="1" source="Zt5BA39hv14aOKBqLXmp-62" edge="1">
                    <mxGeometry relative="1" as="geometry">
                        <mxPoint x="390" y="280" as="targetPoint"/>
                        <mxPoint x="390" y="450" as="sourcePoint"/>
                    </mxGeometry>
                </mxCell>
                <mxCell id="Zt5BA39hv14aOKBqLXmp-80" style="edgeStyle=orthogonalEdgeStyle;orthogonalLoop=1;jettySize=auto;html=1;" parent="1" source="Zt5BA39hv14aOKBqLXmp-75" target="Zt5BA39hv14aOKBqLXmp-79" edge="1">
                    <mxGeometry relative="1" as="geometry"/>
                </mxCell>
                <mxCell id="Zt5BA39hv14aOKBqLXmp-75" value="gecco-to-fhirbridge" style="shape=mxgraph.bpmn.service_task;html=1;outlineConnect=0;labelPosition=left;verticalLabelPosition=middle;align=right;verticalAlign=middle;" parent="1" vertex="1">
                    <mxGeometry x="1570" y="432.5" width="90" height="90" as="geometry"/>
                </mxCell>
                <mxCell id="Zt5BA39hv14aOKBqLXmp-79" value="FHIR-Bridge" style="shape=cube;whiteSpace=wrap;html=1;boundedLbl=1;backgroundOutline=1;darkOpacity=0.05;darkOpacity2=0.1;align=center;size=10;" parent="1" vertex="1">
                    <mxGeometry x="1570" y="570" width="90" height="80" as="geometry"/>
                </mxCell>
                <mxCell id="Zt5BA39hv14aOKBqLXmp-81" value="At latest:&lt;br&gt;- Disclosure-Pseudonymization&lt;br&gt;- Consent Check&lt;br&gt;&lt;div&gt;&lt;span&gt;-...&lt;/span&gt;&lt;/div&gt;" style="whiteSpace=wrap;html=1;shape=mxgraph.basic.cloud_callout;flipH=0;align=center;direction=west;labelPosition=center;verticalLabelPosition=middle;verticalAlign=middle;spacingTop=40;" parent="1" vertex="1">
                    <mxGeometry x="1300" y="495" width="190" height="100" as="geometry"/>
                </mxCell>
                <mxCell id="Zt5BA39hv14aOKBqLXmp-82" value="0%-100% of data elements via EDC enrich data from clinical source systems" style="whiteSpace=wrap;html=1;shape=mxgraph.basic.cloud_callout;align=center;flipH=1;direction=west;labelPosition=center;verticalLabelPosition=middle;verticalAlign=middle;spacingTop=30;" parent="1" vertex="1">
                    <mxGeometry x="290" y="540" width="280" height="100" as="geometry"/>
                </mxCell>
                <mxCell id="Zt5BA39hv14aOKBqLXmp-83" value="*-to-repo" style="shape=mxgraph.bpmn.service_task;html=1;outlineConnect=0;labelPosition=center;verticalLabelPosition=top;align=center;verticalAlign=bottom;" parent="1" vertex="1">
                    <mxGeometry x="1410" y="235" width="90" height="90" as="geometry"/>
                </mxCell>
                <mxCell id="Zt5BA39hv14aOKBqLXmp-85" value="i2b2" style="shape=cube;whiteSpace=wrap;html=1;boundedLbl=1;backgroundOutline=1;darkOpacity=0.05;darkOpacity2=0.1;align=center;size=10;" parent="1" vertex="1">
                    <mxGeometry x="1570" y="180" width="90" height="80" as="geometry"/>
                </mxCell>
                <mxCell id="Zt5BA39hv14aOKBqLXmp-86" value="" style="endArrow=classic;html=1;" parent="1" source="Zt5BA39hv14aOKBqLXmp-83" target="Zt5BA39hv14aOKBqLXmp-85" edge="1">
                    <mxGeometry width="50" height="50" relative="1" as="geometry">
                        <mxPoint x="1530" y="159" as="sourcePoint"/>
                        <mxPoint x="1570" y="170" as="targetPoint"/>
                        <Array as="points">
                            <mxPoint x="1540" y="280"/>
                            <mxPoint x="1540" y="218"/>
                        </Array>
                    </mxGeometry>
                </mxCell>
                <mxCell id="4hY9-Zoo_yzl3ai_Mlpk-1" value="GECCO-FHIR-Server" style="shape=cube;whiteSpace=wrap;html=1;boundedLbl=1;backgroundOutline=1;darkOpacity=0.05;darkOpacity2=0.1;align=center;size=10;" parent="1" vertex="1">
                    <mxGeometry x="1570" y="300" width="90" height="80" as="geometry"/>
                </mxCell>
                <mxCell id="4hY9-Zoo_yzl3ai_Mlpk-3" value="" style="endArrow=classic;html=1;" parent="1" source="Zt5BA39hv14aOKBqLXmp-32" target="Zt5BA39hv14aOKBqLXmp-83" edge="1">
                    <mxGeometry width="50" height="50" relative="1" as="geometry">
                        <mxPoint x="1240" y="300" as="sourcePoint"/>
                        <mxPoint x="1290" y="250" as="targetPoint"/>
                        <Array as="points">
                            <mxPoint x="1360" y="180"/>
                            <mxPoint x="1360" y="280"/>
                        </Array>
                    </mxGeometry>
                </mxCell>
                <mxCell id="4hY9-Zoo_yzl3ai_Mlpk-4" value="" style="endArrow=classic;html=1;dashed=1;" parent="1" source="Zt5BA39hv14aOKBqLXmp-44" target="Zt5BA39hv14aOKBqLXmp-83" edge="1">
                    <mxGeometry width="50" height="50" relative="1" as="geometry">
                        <mxPoint x="1240" y="300" as="sourcePoint"/>
                        <mxPoint x="1290" y="250" as="targetPoint"/>
                    </mxGeometry>
                </mxCell>
                <mxCell id="4hY9-Zoo_yzl3ai_Mlpk-5" value="" style="endArrow=classic;html=1;dashed=1;" parent="1" source="Zt5BA39hv14aOKBqLXmp-35" target="Zt5BA39hv14aOKBqLXmp-83" edge="1">
                    <mxGeometry width="50" height="50" relative="1" as="geometry">
                        <mxPoint x="1240" y="300" as="sourcePoint"/>
                        <mxPoint x="1290" y="250" as="targetPoint"/>
                        <Array as="points">
                            <mxPoint x="1360" y="380"/>
                            <mxPoint x="1360" y="280"/>
                        </Array>
                    </mxGeometry>
                </mxCell>
                <mxCell id="4hY9-Zoo_yzl3ai_Mlpk-6" value="" style="endArrow=classic;html=1;" parent="1" source="Zt5BA39hv14aOKBqLXmp-83" target="4hY9-Zoo_yzl3ai_Mlpk-1" edge="1">
                    <mxGeometry width="50" height="50" relative="1" as="geometry">
                        <mxPoint x="1240" y="300" as="sourcePoint"/>
                        <mxPoint x="1290" y="250" as="targetPoint"/>
                        <Array as="points">
                            <mxPoint x="1540" y="280"/>
                            <mxPoint x="1540" y="340"/>
                        </Array>
                    </mxGeometry>
                </mxCell>
                <mxCell id="4hY9-Zoo_yzl3ai_Mlpk-7" value="" style="endArrow=classic;html=1;" parent="1" source="4hY9-Zoo_yzl3ai_Mlpk-1" target="Zt5BA39hv14aOKBqLXmp-75" edge="1">
                    <mxGeometry width="50" height="50" relative="1" as="geometry">
                        <mxPoint x="1170" y="320" as="sourcePoint"/>
                        <mxPoint x="1220" y="270" as="targetPoint"/>
                    </mxGeometry>
                </mxCell>
                <mxCell id="4hY9-Zoo_yzl3ai_Mlpk-10" value="&lt;b&gt;NUM CODEX AP6, NUM-Knoten v2 (Finales Ziel)&lt;br&gt;&lt;/b&gt;05.02.2021, Marvin Kampf, DIZ UK Erlangen (marvin.kampf@uk-erlangen.de)" style="text;html=1;strokeColor=none;fillColor=none;align=right;verticalAlign=middle;whiteSpace=wrap;labelBorderColor=#000000;labelBackgroundColor=#E6E6E6;" parent="1" vertex="1">
                    <mxGeometry x="1310" y="30" width="420" height="20" as="geometry"/>
                </mxCell>
                <mxCell id="4hY9-Zoo_yzl3ai_Mlpk-11" value="" style="strokeWidth=2;html=1;shape=mxgraph.flowchart.annotation_2;align=left;labelPosition=right;pointerEvents=1;labelBackgroundColor=#E6E6E6;direction=west;" parent="1" vertex="1">
                    <mxGeometry x="1660" y="220" width="60" height="120" as="geometry"/>
                </mxCell>
                <mxCell id="4hY9-Zoo_yzl3ai_Mlpk-12" value="Feasibility" style="html=1;shadow=0;dashed=0;align=center;verticalAlign=middle;shape=mxgraph.arrows2.calloutArrow;dy=10;dx=20;notch=60;arrowHead=10;labelBackgroundColor=none;rotation=0;direction=east;" parent="1" vertex="1">
                    <mxGeometry x="1715" y="250" width="75" height="60" as="geometry"/>
                </mxCell>
                <mxCell id="4hY9-Zoo_yzl3ai_Mlpk-14" value="" style="strokeWidth=2;html=1;shape=mxgraph.flowchart.annotation_2;align=left;labelPosition=right;pointerEvents=1;labelBackgroundColor=#E6E6E6;direction=west;" parent="1" vertex="1">
                    <mxGeometry x="1660" y="610" width="60" height="20" as="geometry"/>
                </mxCell>
                <mxCell id="4hY9-Zoo_yzl3ai_Mlpk-15" value="DSF" style="html=1;shadow=0;dashed=0;align=center;verticalAlign=middle;shape=mxgraph.arrows2.calloutArrow;dy=10;dx=20;notch=60;arrowHead=10;labelBackgroundColor=none;rotation=0;direction=east;" parent="1" vertex="1">
                    <mxGeometry x="1715" y="590" width="75" height="60" as="geometry"/>
                </mxCell>
                <mxCell id="4" style="edgeStyle=orthogonalEdgeStyle;rounded=0;orthogonalLoop=1;jettySize=auto;html=1;endArrow=classic;endFill=1;" parent="1" source="Zt5BA39hv14aOKBqLXmp-57" target="Zt5BA39hv14aOKBqLXmp-46" edge="1">
                    <mxGeometry relative="1" as="geometry"/>
                </mxCell>
                <mxCell id="5" value="B" style="edgeLabel;html=1;align=center;verticalAlign=middle;resizable=0;points=[];" parent="4" vertex="1" connectable="0">
                    <mxGeometry x="-0.1481" y="-2" relative="1" as="geometry">
                        <mxPoint as="offset"/>
                    </mxGeometry>
                </mxCell>
                <mxCell id="8" value="Data from clinical systems can be integrated parallel to EDC (A) or consolidated in EDC (B)" style="shape=callout;whiteSpace=wrap;html=1;perimeter=calloutPerimeter;align=center;rotation=0;base=5;size=90;position=0.88;position2=0.95;flipH=0;" parent="1" vertex="1">
                    <mxGeometry x="15" y="120" width="185" height="150" as="geometry"/>
                </mxCell>
                <mxCell id="9" value="" style="endArrow=classic;html=1;curved=1;startArrow=classic;startFill=1;" parent="1" source="Zt5BA39hv14aOKBqLXmp-8" target="Zt5BA39hv14aOKBqLXmp-32" edge="1">
                    <mxGeometry width="50" height="50" relative="1" as="geometry">
                        <mxPoint x="790" y="330" as="sourcePoint"/>
                        <mxPoint x="840" y="280" as="targetPoint"/>
                        <Array as="points">
                            <mxPoint x="630" y="10"/>
                            <mxPoint x="1000" y="10"/>
                            <mxPoint x="1160" y="40"/>
                        </Array>
                    </mxGeometry>
                </mxCell>
                <mxCell id="10" value="Lookup for 3-way Merge" style="edgeLabel;html=1;align=center;verticalAlign=middle;resizable=0;points=[];" parent="9" vertex="1" connectable="0">
                    <mxGeometry x="0.3322" y="-2" relative="1" as="geometry">
                        <mxPoint as="offset"/>
                    </mxGeometry>
                </mxCell>
            </root>
        </mxGraphModel>
    </diagram>
</mxfile>